<svg width="1571" height="1205" viewBox="0 0 1571 1205" fill="none" xmlns="http://www.w3.org/2000/svg">
<circle cx="300" cy="305" r="247.5" fill="#737370" stroke="black" stroke-width="5"/>
<circle cx="1213" cy="905" r="47.5" fill="#737370" stroke="black" stroke-width="5"/>
<circle cx="300" cy="905" r="247.5" fill="#EBEDED" stroke="#737370" stroke-width="5"/>
<circle cx="843" cy="905" r="47.5" fill="#EBEDED" stroke="#737370" stroke-width="5"/>
<circle cx="953" cy="905" r="47.5" fill="#EBEDED" stroke="#737370" stroke-width="5"/>
<circle cx="1521" cy="905" r="47.5" fill="#EBEDED" stroke="#737370" stroke-width="5"/>
<circle cx="900" cy="305" r="247.5" fill="#EBEDED" stroke="#737370" stroke-width="5"/>
<line y1="2.5" x2="1200" y2="2.5" stroke="#006CA9" stroke-width="5"/>
<line x1="2.5" y1="5" x2="2.5" y2="1205" stroke="#006CA9" stroke-width="5"/>
<line x1="602.5" y1="5" x2="602.5" y2="1205" stroke="#006CA9" stroke-width="5"/>
<line y1="1202.5" x2="1200" y2="1202.5" stroke="#006CA9" stroke-width="5"/>
<line y1="605.5" x2="1200" y2="605.5" stroke="#006CA9" stroke-width="5"/>
<path d="M743 747C745.761 747 748 744.761 748 742V697C748 694.239 745.761 692 743 692C740.239 692 738 694.239 738 697V737H698C695.239 737 693 739.239 693 742C693 744.761 695.239 747 698 747H743ZM508 507L504.464 510.536L739.464 745.536L743 742L746.536 738.464L511.536 503.464L508 507Z" fill="#FA8F00"/>
<path d="M896.464 745.536C898.417 747.488 901.583 747.488 903.536 745.536L935.355 713.716C937.308 711.763 937.308 708.597 935.355 706.645C933.403 704.692 930.237 704.692 928.284 706.645L900 734.929L871.716 706.645C869.763 704.692 866.597 704.692 864.645 706.645C862.692 708.597 862.692 711.763 864.645 713.716L896.464 745.536ZM900 581H895V742H900H905V581H900Z" fill="#FA8F00"/>
<path d="M746.536 908.536C748.488 906.583 748.488 903.417 746.536 901.464L714.716 869.645C712.763 867.692 709.597 867.692 707.645 869.645C705.692 871.597 705.692 874.763 707.645 876.716L735.929 905L707.645 933.284C705.692 935.237 705.692 938.403 707.645 940.355C709.597 942.308 712.763 942.308 714.716 940.355L746.536 908.536ZM560 905V910H743V905V900H560V905Z" fill="#FA8F00"/>
<path d="M1129.65 923.864L1038.17 970.455V952.273L1108.34 918.466L1107.77 919.602V916.761L1108.34 917.898L1038.17 884.091V865.909L1129.65 912.5V923.864Z" fill="#FA8F00"/>
<path d="M1385.53 978L1374.59 967.205L1427.43 914.364L1374.59 861.665L1385.53 850.727L1449.16 914.364L1385.53 978ZM1303 939.08V923.455H1429.56L1413.94 939.08H1303ZM1303 905.273V889.648H1413.94L1429.56 905.273H1303Z" fill="#FA8F00"/>
</svg>
